<mxfile host="app.diagrams.net" modified="2024-01-22T17:20:51.235Z" agent="Mozilla/5.0 (X11; Ubuntu; Linux x86_64; rv:120.0) Gecko/20100101 Firefox/120.0" etag="nAYbt9WjJqC3SMz86a5c" version="22.1.21" type="github">
  <diagram name="Page-1" id="Se7Kq5soPcTFTAZBiPU0">
    <mxGraphModel dx="1434" dy="822" grid="1" gridSize="10" guides="1" tooltips="1" connect="1" arrows="1" fold="1" page="1" pageScale="1" pageWidth="850" pageHeight="1100" math="0" shadow="0">
      <root>
        <mxCell id="0" />
        <mxCell id="1" parent="0" />
        <mxCell id="sFuiFdOQzReEZV1WAjLy-4" style="edgeStyle=orthogonalEdgeStyle;rounded=0;orthogonalLoop=1;jettySize=auto;html=1;exitX=1;exitY=0.5;exitDx=0;exitDy=0;" edge="1" parent="1" source="sFuiFdOQzReEZV1WAjLy-1" target="sFuiFdOQzReEZV1WAjLy-3">
          <mxGeometry relative="1" as="geometry" />
        </mxCell>
        <mxCell id="sFuiFdOQzReEZV1WAjLy-1" value="" style="image;aspect=fixed;perimeter=ellipsePerimeter;html=1;align=center;shadow=0;dashed=0;spacingTop=3;image=img/lib/active_directory/internet_cloud.svg;" vertex="1" parent="1">
          <mxGeometry x="50" y="80" width="95.24" height="60" as="geometry" />
        </mxCell>
        <mxCell id="sFuiFdOQzReEZV1WAjLy-10" style="edgeStyle=orthogonalEdgeStyle;rounded=0;orthogonalLoop=1;jettySize=auto;html=1;" edge="1" parent="1" source="sFuiFdOQzReEZV1WAjLy-3" target="sFuiFdOQzReEZV1WAjLy-5">
          <mxGeometry relative="1" as="geometry" />
        </mxCell>
        <mxCell id="sFuiFdOQzReEZV1WAjLy-3" value="" style="image;aspect=fixed;html=1;points=[];align=center;fontSize=12;image=img/lib/azure2/networking/Virtual_Router.svg;" vertex="1" parent="1">
          <mxGeometry x="270" y="30" width="70" height="70" as="geometry" />
        </mxCell>
        <mxCell id="sFuiFdOQzReEZV1WAjLy-5" value="" style="image;points=[];aspect=fixed;html=1;align=center;shadow=0;dashed=0;image=img/lib/allied_telesis/switch/Switch_24_port_L2.svg;" vertex="1" parent="1">
          <mxGeometry x="262.8" y="150" width="84.4" height="57.86" as="geometry" />
        </mxCell>
        <mxCell id="sFuiFdOQzReEZV1WAjLy-7" value="" style="sketch=0;aspect=fixed;pointerEvents=1;shadow=0;dashed=0;html=1;strokeColor=none;labelPosition=center;verticalLabelPosition=bottom;verticalAlign=top;align=center;fillColor=#00188D;shape=mxgraph.mscae.enterprise.firewall" vertex="1" parent="1">
          <mxGeometry x="130" y="280" width="56.82" height="50" as="geometry" />
        </mxCell>
        <mxCell id="sFuiFdOQzReEZV1WAjLy-8" value="" style="sketch=0;aspect=fixed;pointerEvents=1;shadow=0;dashed=0;html=1;strokeColor=none;labelPosition=center;verticalLabelPosition=bottom;verticalAlign=top;align=center;fillColor=#00188D;shape=mxgraph.mscae.enterprise.firewall" vertex="1" parent="1">
          <mxGeometry x="460" y="290" width="50" height="44" as="geometry" />
        </mxCell>
        <mxCell id="sFuiFdOQzReEZV1WAjLy-9" style="edgeStyle=orthogonalEdgeStyle;rounded=0;orthogonalLoop=1;jettySize=auto;html=1;entryX=0.54;entryY=0.273;entryDx=0;entryDy=0;entryPerimeter=0;" edge="1" parent="1" source="sFuiFdOQzReEZV1WAjLy-5" target="sFuiFdOQzReEZV1WAjLy-8">
          <mxGeometry relative="1" as="geometry" />
        </mxCell>
        <mxCell id="sFuiFdOQzReEZV1WAjLy-11" style="edgeStyle=orthogonalEdgeStyle;rounded=0;orthogonalLoop=1;jettySize=auto;html=1;entryX=0.5;entryY=0;entryDx=0;entryDy=0;entryPerimeter=0;" edge="1" parent="1" source="sFuiFdOQzReEZV1WAjLy-5" target="sFuiFdOQzReEZV1WAjLy-7">
          <mxGeometry relative="1" as="geometry" />
        </mxCell>
        <mxCell id="sFuiFdOQzReEZV1WAjLy-12" value="&lt;div&gt;Cyber.lan&lt;/div&gt;&lt;div&gt;172.16.x.x/16&lt;br&gt;&lt;/div&gt;" style="text;html=1;strokeColor=none;fillColor=none;align=center;verticalAlign=middle;whiteSpace=wrap;rounded=0;" vertex="1" parent="1">
          <mxGeometry x="122.61" y="330" width="71.59" height="30" as="geometry" />
        </mxCell>
        <mxCell id="sFuiFdOQzReEZV1WAjLy-13" value="&lt;div&gt;stemlab.lan&lt;br&gt;&lt;/div&gt;&lt;div&gt;192.168.100.x/24&lt;/div&gt;" style="text;html=1;strokeColor=none;fillColor=none;align=center;verticalAlign=middle;whiteSpace=wrap;rounded=0;" vertex="1" parent="1">
          <mxGeometry x="454" y="334" width="60" height="36" as="geometry" />
        </mxCell>
        <mxCell id="sFuiFdOQzReEZV1WAjLy-14" value="StarLink/Mothership" style="text;html=1;strokeColor=none;fillColor=none;align=center;verticalAlign=middle;whiteSpace=wrap;rounded=0;" vertex="1" parent="1">
          <mxGeometry x="275" y="10" width="60" height="30" as="geometry" />
        </mxCell>
        <mxCell id="sFuiFdOQzReEZV1WAjLy-15" value="&lt;div&gt;Internet&lt;/div&gt;" style="text;html=1;strokeColor=none;fillColor=none;align=center;verticalAlign=middle;whiteSpace=wrap;rounded=0;" vertex="1" parent="1">
          <mxGeometry x="67.62" y="140" width="60" height="30" as="geometry" />
        </mxCell>
        <mxCell id="sFuiFdOQzReEZV1WAjLy-16" value="Tiny Switch" style="text;html=1;strokeColor=none;fillColor=none;align=center;verticalAlign=middle;whiteSpace=wrap;rounded=0;" vertex="1" parent="1">
          <mxGeometry x="280" y="207.86" width="60" height="30" as="geometry" />
        </mxCell>
      </root>
    </mxGraphModel>
  </diagram>
</mxfile>
